# xmcd CD database file
#
# Track frame offsets:
#	150
#	16450
#	33362
#	49800
#	65450
#	82087
#	101487
#	122162
#	143775
#	161700
#
# Disc length: 2413 seconds
#
# Revision: 3
# Processed by: cddbd v1.5PL3 Copyright (c) Steve Scherf et al.
# Submitted via: CDex 1.50beta8
#
DISCID=86096b0a
DTITLE=松田聖子 - Seiko-Train
DYEAR=1985
DGENRE=JPop
TTITLE0=制服
TTITLE1=渚のバルコニー
TTITLE2=小麦色のマーメイド
TTITLE3=マドラス･チェックの恋人
TTITLE4=赤いスイートピー
TTITLE5=Rock'n Rouge
TTITLE6=ボン･ボヤージュ
TTITLE7=時間の国のアリス
TTITLE8=蒼いフォトグラフ
TTITLE9=瞳はダイアモンド
EXTD=YEAR: 1985
EXTT0=
EXTT1=
EXTT2=
EXTT3=
EXTT4=
EXTT5=
EXTT6=
EXTT7=
EXTT8=
EXTT9=
PLAYORDER=
